<svg width="1129" height="702" viewBox="0 0 1129 702" fill="none" xmlns="http://www.w3.org/2000/svg">
<g filter="url(#filter0_i_2296_937574)">
<path fill-rule="evenodd" clip-rule="evenodd" d="M564.5 815C821.036 815 1029 607.036 1029 350.5C1029 93.9637 821.036 -114 564.5 -114C307.964 -114 100 93.9637 100 350.5C100 607.036 307.964 815 564.5 815ZM564.5 915C876.265 915 1129 662.265 1129 350.5C1129 38.7353 876.265 -214 564.5 -214C252.735 -214 0 38.7353 0 350.5C0 662.265 252.735 915 564.5 915Z" fill="url(#paint0_linear_2296_937574)" fill-opacity="0.5"/>
</g>
<path d="M564.5 815.5C821.312 815.5 1029.5 607.312 1029.5 350.5C1029.5 93.6876 821.312 -114.5 564.5 -114.5C307.688 -114.5 99.5 93.6876 99.5 350.5C99.5 607.312 307.688 815.5 564.5 815.5ZM1128.5 350.5C1128.5 661.989 875.989 914.5 564.5 914.5C253.011 914.5 0.5 661.989 0.5 350.5C0.5 39.0114 253.011 -213.5 564.5 -213.5C875.989 -213.5 1128.5 39.0114 1128.5 350.5Z" stroke="#006CF1" stroke-opacity="0.1"/>
<defs>
<filter id="filter0_i_2296_937574" x="0" y="-214" width="1129" height="1143" filterUnits="userSpaceOnUse" color-interpolation-filters="sRGB">
<feFlood flood-opacity="0" result="BackgroundImageFix"/>
<feBlend mode="normal" in="SourceGraphic" in2="BackgroundImageFix" result="shape"/>
<feColorMatrix in="SourceAlpha" type="matrix" values="0 0 0 0 0 0 0 0 0 0 0 0 0 0 0 0 0 0 127 0" result="hardAlpha"/>
<feOffset dy="26"/>
<feGaussianBlur stdDeviation="7"/>
<feComposite in2="hardAlpha" operator="arithmetic" k2="-1" k3="1"/>
<feColorMatrix type="matrix" values="0 0 0 0 1 0 0 0 0 1 0 0 0 0 1 0 0 0 0.25 0"/>
<feBlend mode="normal" in2="shape" result="effect1_innerShadow_2296_937574"/>
</filter>
<linearGradient id="paint0_linear_2296_937574" x1="-21.5" y1="18" x2="1139.5" y2="624.5" gradientUnits="userSpaceOnUse">
<stop stop-color="white" stop-opacity="0"/>
<stop offset="0.775" stop-color="white" stop-opacity="0.39"/>
<stop offset="1" stop-color="white"/>
</linearGradient>
</defs>
</svg>
